<?xml version="1.0" encoding="UTF-8" standalone="no"?>
<!-- Created with Inkscape (http://www.inkscape.org/) -->

<svg
   width="128mm"
   height="128mm"
   viewBox="0 0 128.00001 128.00001"
   version="1.1"
   id="svg5"
   inkscape:version="1.1.1 (3bf5ae0d25, 2021-09-20, custom)"
   sodipodi:docname="icon.svg"
   inkscape:export-filename="/home/meetcw/Projects/browser-completion-source/src/icon.png"
   inkscape:export-xdpi="25.4"
   inkscape:export-ydpi="25.4"
   xmlns:inkscape="http://www.inkscape.org/namespaces/inkscape"
   xmlns:sodipodi="http://sodipodi.sourceforge.net/DTD/sodipodi-0.dtd"
   xmlns="http://www.w3.org/2000/svg"
   xmlns:svg="http://www.w3.org/2000/svg">
  <sodipodi:namedview
     id="namedview7"
     pagecolor="#ffffff"
     bordercolor="#666666"
     borderopacity="1.0"
     inkscape:pageshadow="2"
     inkscape:pageopacity="0.0"
     inkscape:pagecheckerboard="true"
     inkscape:document-units="mm"
     showgrid="false"
     showguides="true"
     inkscape:zoom="1.5399577"
     inkscape:cx="153.57565"
     inkscape:cy="263.31892"
     inkscape:window-width="2560"
     inkscape:window-height="1405"
     inkscape:window-x="0"
     inkscape:window-y="35"
     inkscape:window-maximized="1"
     inkscape:current-layer="g2805"
     units="mm">
    <inkscape:grid
       type="xygrid"
       id="grid2492" />
  </sodipodi:namedview>
  <defs
     id="defs2">
    <inkscape:path-effect
       effect="powermask"
       id="path-effect7546"
       is_visible="true"
       lpeversion="1"
       uri="#mask-powermask-path-effect7546"
       invert="false"
       hide_mask="false"
       background="false"
       background_color="#ffffffff" />
    <mask
       maskUnits="userSpaceOnUse"
       id="mask-powermask-path-effect7546">
      <rect
         style="fill:#000000;fill-opacity:1;stroke-width:0.330729"
         id="rect7544"
         width="50"
         height="50"
         x="0"
         y="0" />
    </mask>
  </defs>
  <g
     inkscape:label="Layer 1"
     inkscape:groupmode="layer"
     id="layer1"
     style="display:none"
     sodipodi:insensitive="true">
    <g
       id="g55820">
      <path
         id="rect8145-7"
         style="fill:#000000;fill-opacity:1;stroke-width:0.188228"
         d="m 7.3913813,7.5325555 c -3.1367782,0 -5.6621866,2.5518155 -5.6621866,5.7210975 v 68.558088 c 0,3.169282 2.5254084,5.721098 5.6621866,5.721098 H 106.06752 c 3.13678,0 5.66167,-2.551816 5.66167,-5.721098 V 13.253653 c 0,-3.169282 -2.52489,-5.7210975 -5.66167,-5.7210975 z m 3.3382977,5.0002115 a 3,3 0 0 1 2.999817,2.999818 3,3 0 0 1 -2.999817,3.000332 3,3 0 0 1 -3.0003338,-3.000332 3,3 0 0 1 3.0003338,-2.999818 z m 8.999968,0 a 3,3 0 0 1 2.999817,2.999818 3,3 0 0 1 -2.999817,3.000332 3,3 0 0 1 -3.000334,-3.000332 3,3 0 0 1 3.000334,-2.999818 z m 8.999967,0 a 3,3 0 0 1 2.999816,2.999818 3,3 0 0 1 -2.999816,3.000332 3,3 0 0 1 -3.000333,-3.000332 3,3 0 0 1 3.000333,-2.999818 z m 10.022644,0 h 65.954622 c 1.12058,0 2.02262,0.891878 2.02262,1.999878 v 1.999878 c 0,1.108 -0.90204,2.000394 -2.02262,2.000394 H 38.752258 c -1.120585,0 -2.022616,-0.892394 -2.022616,-2.000394 v -1.999878 c 0,-1.108 0.902031,-1.999878 2.022616,-1.999878 z M 8.7292842,22.532674 H 104.72962 c 1.108,0 1.99988,0.915737 1.99988,2.053104 v 55.893746 c 0,1.137367 -0.89188,2.053103 -1.99988,2.053103 H 8.7292842 c -1.1080001,0 -1.999878,-0.915736 -1.999878,-2.053103 V 24.585778 c 0,-1.137367 0.8918779,-2.053104 1.999878,-2.053104 z" />
      <rect
         style="fill:#666666;fill-opacity:0.529221;stroke-width:0.264583"
         id="rect55256"
         width="31.129"
         height="6"
         x="10"
         y="26.390299"
         rx="2.0227158"
         ry="1.9585261" />
      <rect
         style="display:inline;fill:#b3b3b3;fill-opacity:0.529221;stroke-width:0.264583"
         id="rect55256-6"
         width="65.129341"
         height="6"
         x="10"
         y="34.760788"
         rx="2.0227158"
         ry="1.9585261" />
      <rect
         style="display:inline;fill:#808080;fill-opacity:0.529221;stroke-width:0.264583"
         id="rect55256-2"
         width="56.129002"
         height="6"
         x="10"
         y="43.361801"
         rx="2.0227158"
         ry="1.9585261" />
      <rect
         style="display:inline;fill:#b3b3b3;fill-opacity:0.529221;stroke-width:0.264583"
         id="rect55256-61"
         width="45.129002"
         height="6"
         x="10"
         y="51.251423"
         rx="2.0227158"
         ry="1.9585261" />
      <rect
         style="display:inline;fill:#b3b3b3;fill-opacity:0.529221;stroke-width:0.264583"
         id="rect55256-8"
         width="65.129341"
         height="6"
         x="10"
         y="59.629025"
         rx="2.0227158"
         ry="1.9585261" />
    </g>
    <path
       id="rect8145"
       style="display:inline;fill:#000000;fill-opacity:1;stroke-width:0.188228"
       d="m 19.655608,43.907431 c -3.136778,-3e-6 -5.66167,2.551813 -5.66167,5.721096 v 68.558103 c 0,3.16928 2.524892,5.72109 5.66167,5.72109 h 98.676132 c 3.13678,0 5.66219,-2.55181 5.66219,-5.72109 V 49.628527 c 0,-3.169283 -2.52541,-5.721096 -5.66219,-5.721096 z m 3.338298,5.000209 a 3,3 0 0 1 2.999817,2.999817 3,3 0 0 1 -2.999817,3.000335 3,3 0 0 1 -3.000334,-3.000335 3,3 0 0 1 3.000334,-2.999817 z m 8.999966,0 a 3,3 0 0 1 2.999817,2.999817 3,3 0 0 1 -2.999817,3.000335 3,3 0 0 1 -2.999817,-3.000335 3,3 0 0 1 2.999817,-2.999817 z m 8.999969,0 a 3,3 0 0 1 2.999816,2.999817 3,3 0 0 1 -2.999816,3.000335 3,3 0 0 1 -2.999817,-3.000335 3,3 0 0 1 2.999817,-2.999817 z m -19.999813,9.999906 h 95.999812 c 1.108,0 1.99988,0.915739 1.99988,2.053106 v 55.893758 c 0,1.13737 -0.89188,2.0531 -1.99988,2.0531 H 20.994028 c -1.108,0 -2.000395,-0.91573 -2.000395,-2.0531 V 60.960652 c 0,-1.137367 0.892395,-2.053106 2.000395,-2.053106 z" />
  </g>
  <g
     inkscape:label="Layer 1 copy"
     inkscape:groupmode="layer"
     id="g55954"
     style="display:none"
     sodipodi:insensitive="true">
    <path
       id="path55938"
       style="fill:#000000;fill-opacity:1;stroke-width:0.188228"
       d="m 8.703399,4.6919511 c -3.1367782,0 -5.6621866,2.5518155 -5.6621866,5.7210979 v 68.558088 c 0,3.169282 2.5254084,5.721098 5.6621866,5.721098 h 98.676141 c 3.13678,0 5.66167,-2.551816 5.66167,-5.721098 V 10.413049 c 0,-3.1692824 -2.52489,-5.7210979 -5.66167,-5.7210979 z m 3.338298,5.0002115 a 3,3 0 0 1 2.999817,2.9998184 3,3 0 0 1 -2.999817,3.000332 3,3 0 0 1 -3.0003341,-3.000332 3,3 0 0 1 3.0003341,-2.9998184 z m 8.999968,0 a 3,3 0 0 1 2.999817,2.9998184 3,3 0 0 1 -2.999817,3.000332 3,3 0 0 1 -3.000334,-3.000332 3,3 0 0 1 3.000334,-2.9998184 z m 8.999967,0 a 3,3 0 0 1 2.999816,2.9998184 3,3 0 0 1 -2.999816,3.000332 3,3 0 0 1 -3.000333,-3.000332 3,3 0 0 1 3.000333,-2.9998184 z m 10.022644,0 H 106.0189 c 1.12058,0 2.02262,0.8918784 2.02262,1.9998784 v 1.999878 c 0,1.108 -0.90204,2.000394 -2.02262,2.000394 H 40.064276 c -1.120585,0 -2.022616,-0.892394 -2.022616,-2.000394 v -1.999878 c 0,-1.108 0.902031,-1.9998784 2.022616,-1.9998784 z M 10.041302,19.69207 h 96.000338 c 1.108,0 1.99988,0.915737 1.99988,2.053104 V 77.63892 c 0,1.137367 -0.89188,2.053103 -1.99988,2.053103 H 10.041302 c -1.1080002,0 -1.9998781,-0.915736 -1.9998781,-2.053103 V 21.745174 c 0,-1.137367 0.8918779,-2.053104 1.9998781,-2.053104 z" />
    <rect
       style="fill:#666666;fill-opacity:0.529221;stroke-width:0.264583"
       id="rect55940"
       width="31.129"
       height="6"
       x="11.312017"
       y="23.549694"
       rx="2.0227158"
       ry="1.9585261" />
    <rect
       style="display:inline;fill:#b3b3b3;fill-opacity:0.529221;stroke-width:0.264583"
       id="rect55942"
       width="65.129341"
       height="6"
       x="11.312017"
       y="31.920183"
       rx="2.0227158"
       ry="1.9585261" />
    <rect
       style="display:inline;fill:#808080;fill-opacity:0.529221;stroke-width:0.264583"
       id="rect55944"
       width="56.129002"
       height="6"
       x="11.312017"
       y="40.521198"
       rx="2.0227158"
       ry="1.9585261" />
    <rect
       style="display:inline;fill:#b3b3b3;fill-opacity:0.529221;stroke-width:0.264583"
       id="rect55946"
       width="45.129002"
       height="6"
       x="11.312017"
       y="48.41082"
       rx="2.0227158"
       ry="1.9585261" />
    <rect
       style="display:inline;fill:#b3b3b3;fill-opacity:0.529221;stroke-width:0.264583"
       id="rect55948"
       width="65.129341"
       height="6"
       x="11.312017"
       y="56.788422"
       rx="2.0227158"
       ry="1.9585261" />
    <g
       aria-label="&lt;/&gt;"
       id="text58773"
       style="font-weight:bold;font-size:50.8px;line-height:1.25;-inkscape-font-specification:'sans-serif Bold';word-spacing:0px;fill-opacity:0.7;stroke-width:0.264583"
       transform="translate(-6.1195307,-1.2116072)">
      <path
         id="path71893"
         d="m 88.115129,88.632524 16.967201,-6.9596 -16.967201,-7.874 v -5.9436 l 24.638001,12.2936 v 3.556 l -24.638001,10.8712 z m -2.438408,-25.2984 -13.5128,36.2712 h -6.858 l 13.5128,-36.2712 z m -22.961625,31.242 -24.638,-10.8712 v -3.556 l 24.638,-12.2936 v 5.9436 l -16.9672,7.874 16.9672,6.9596 z M 26.09753,37.02161 c -3.136778,-3e-6 -5.66167,2.551813 -5.66167,5.721097 v 68.558103 c 0,3.16928 2.524892,5.72109 5.66167,5.72109 h 98.67613 c 3.13678,0 5.66219,-2.55181 5.66219,-5.72109 V 42.742707 c 0,-3.169283 -2.52541,-5.721096 -5.66219,-5.721096 z m 3.338298,5.000209 a 3,3 0 0 1 2.999817,2.999817 3,3 0 0 1 -2.999817,3.000335 3,3 0 0 1 -3.000334,-3.000335 3,3 0 0 1 3.000334,-2.999817 z m 8.999966,0 a 3,3 0 0 1 2.999817,2.999817 3,3 0 0 1 -2.999817,3.000335 3,3 0 0 1 -2.999817,-3.000335 3,3 0 0 1 2.999817,-2.999817 z m 8.999969,0 a 3,3 0 0 1 2.999816,2.999817 3,3 0 0 1 -2.999816,3.000335 3,3 0 0 1 -2.999817,-3.000335 3,3 0 0 1 2.999817,-2.999817 z M 27.43595,52.021725 h 95.99981 c 1.108,0 1.99988,0.91574 1.99988,2.053106 v 55.893759 c 0,1.13737 -0.89188,2.0531 -1.99988,2.0531 H 27.43595 c -1.108,0 -2.000395,-0.91573 -2.000395,-2.0531 V 54.074831 c 0,-1.137366 0.892395,-2.053106 2.000395,-2.053106 z" />
    </g>
  </g>
  <g
     inkscape:label="Layer 1 copy copy"
     inkscape:groupmode="layer"
     id="g73401"
     style="display:none">
    <rect
       style="fill:#666666;fill-opacity:0.529221;stroke-width:0.264583"
       id="rect73387"
       width="31.129"
       height="6"
       x="11.312017"
       y="23.549694"
       rx="2.0227158"
       ry="1.9585261" />
    <rect
       style="display:inline;fill:#b3b3b3;fill-opacity:0.529221;stroke-width:0.264583"
       id="rect73389"
       width="65.129341"
       height="6"
       x="11.312017"
       y="31.920183"
       rx="2.0227158"
       ry="1.9585261" />
    <rect
       style="display:inline;fill:#808080;fill-opacity:0.529221;stroke-width:0.264583"
       id="rect73391"
       width="56.129002"
       height="6"
       x="11.312017"
       y="40.521198"
       rx="2.0227158"
       ry="1.9585261" />
    <rect
       style="display:inline;fill:#b3b3b3;fill-opacity:0.529221;stroke-width:0.264583"
       id="rect73393"
       width="45.129002"
       height="6"
       x="11.312017"
       y="48.41082"
       rx="2.0227158"
       ry="1.9585261" />
    <rect
       style="display:inline;fill:#b3b3b3;fill-opacity:0.529221;stroke-width:0.264583"
       id="rect73395"
       width="65.129341"
       height="6"
       x="11.312017"
       y="56.788422"
       rx="2.0227158"
       ry="1.9585261" />
  </g>
  <g
     inkscape:label="Layer 1 copy copy copy copy"
     inkscape:groupmode="layer"
     id="g2805"
     style="display:inline">
    <g
       id="g2803"
       transform="translate(1.9588419,4.3082967)"
       style="fill:#ffffff">
      <rect
         style="fill:#ffffff;fill-opacity:0.529221;stroke-width:0.264583"
         id="rect2785"
         width="31.129"
         height="6"
         x="11.312017"
         y="23.549694"
         rx="2.0227158"
         ry="1.9585261" />
      <rect
         style="display:inline;fill:#ffffff;fill-opacity:0.529221;stroke-width:0.264583"
         id="rect2787"
         width="65.129341"
         height="6"
         x="11.312017"
         y="31.920183"
         rx="2.0227158"
         ry="1.9585261" />
      <rect
         style="display:inline;fill:#ffffff;fill-opacity:0.529221;stroke-width:0.264583"
         id="rect2789"
         width="56.129002"
         height="6"
         x="11.312017"
         y="40.521198"
         rx="2.0227158"
         ry="1.9585261" />
      <rect
         style="display:inline;fill:#ffffff;fill-opacity:0.529221;stroke-width:0.264583"
         id="rect2791"
         width="45.129002"
         height="6"
         x="11.312017"
         y="48.41082"
         rx="2.0227158"
         ry="1.9585261" />
      <rect
         style="display:inline;fill:#ffffff;fill-opacity:0.529221;stroke-width:0.264583"
         id="rect2793"
         width="65.129341"
         height="6"
         x="11.312017"
         y="56.788422"
         rx="2.0227158"
         ry="1.9585261" />
      <g
         id="g2801"
         style="fill:#ffffff">
        <path
           id="path2795"
           style="display:inline;fill:#ffffff;fill-opacity:1;stroke-width:0.711413"
           d="m 32.894531,17.732422 c -11.855539,0 -21.40039,9.644657 -21.40039,21.623047 V 298.47266 c 0,11.97838 9.544851,21.62304 21.40039,21.62304 H 55.185547 V 301.19727 H 37.951172 c -4.187717,0 -7.558594,-3.46106 -7.558594,-7.75977 V 82.185547 c 0,-4.29871 3.370877,-7.759766 7.558594,-7.759766 H 400.78711 c 4.18772,0 7.55859,3.461056 7.55859,7.759766 v 53.419923 h 18.89649 V 39.355469 c 0,-11.97839 -9.54289,-21.623047 -21.39844,-21.623047 z M 45.511719,36.630859 A 11.338583,11.338583 0 0 1 56.849609,47.96875 11.338583,11.338583 0 0 1 45.511719,59.308594 11.338583,11.338583 0 0 1 34.171875,47.96875 11.338583,11.338583 0 0 1 45.511719,36.630859 Z m 34.015625,0 A 11.338583,11.338583 0 0 1 90.865234,47.96875 11.338583,11.338583 0 0 1 79.527344,59.308594 11.338583,11.338583 0 0 1 68.1875,47.96875 11.338583,11.338583 0 0 1 79.527344,36.630859 Z m 34.015626,0 A 11.338583,11.338583 0 0 1 124.88086,47.96875 11.338583,11.338583 0 0 1 113.54297,59.308594 11.338583,11.338583 0 0 1 102.20312,47.96875 11.338583,11.338583 0 0 1 113.54297,36.630859 Z m 37.88086,0 h 249.27734 c 4.23526,0 7.64453,3.370878 7.64453,7.558594 v 7.558594 c 0,4.187716 -3.40927,7.560547 -7.64453,7.560547 H 151.42383 c -4.23528,0 -7.64453,-3.372831 -7.64453,-7.560547 v -7.558594 c 0,-4.187716 3.40925,-7.558594 7.64453,-7.558594 z"
           transform="scale(0.26458333)" />
        <g
           aria-label="&lt;/&gt;"
           id="g2799"
           style="font-weight:bold;font-size:50.8px;line-height:1.25;-inkscape-font-specification:'sans-serif Bold';word-spacing:0px;fill:#ffffff;fill-opacity:0.7;stroke-width:0.264583"
           transform="translate(-6.1195307,-1.2116072)">
          <path
             id="path2797"
             d="m 88.115129,88.632524 16.967201,-6.9596 -16.967201,-7.874 v -5.9436 l 24.638001,12.2936 v 3.556 l -24.638001,10.8712 z m -2.438408,-25.2984 -13.5128,36.2712 h -6.858 l 13.5128,-36.2712 z m -22.961625,31.242 -24.638,-10.8712 v -3.556 l 24.638,-12.2936 v 5.9436 l -16.9672,7.874 16.9672,6.9596 z M 26.09753,37.02161 c -3.136778,-3e-6 -5.66167,2.551813 -5.66167,5.721097 v 68.558103 c 0,3.16928 2.524892,5.72109 5.66167,5.72109 h 98.67613 c 3.13678,0 5.66219,-2.55181 5.66219,-5.72109 V 42.742707 c 0,-3.169283 -2.52541,-5.721096 -5.66219,-5.721096 z m 3.338298,5.000209 a 3,3 0 0 1 2.999817,2.999817 3,3 0 0 1 -2.999817,3.000335 3,3 0 0 1 -3.000334,-3.000335 3,3 0 0 1 3.000334,-2.999817 z m 8.999966,0 a 3,3 0 0 1 2.999817,2.999817 3,3 0 0 1 -2.999817,3.000335 3,3 0 0 1 -2.999817,-3.000335 3,3 0 0 1 2.999817,-2.999817 z m 8.999969,0 a 3,3 0 0 1 2.999816,2.999817 3,3 0 0 1 -2.999816,3.000335 3,3 0 0 1 -2.999817,-3.000335 3,3 0 0 1 2.999817,-2.999817 z M 27.43595,52.021725 h 95.99981 c 1.108,0 1.99988,0.91574 1.99988,2.053106 v 55.893759 c 0,1.13737 -0.89188,2.0531 -1.99988,2.0531 H 27.43595 c -1.108,0 -2.000395,-0.91573 -2.000395,-2.0531 V 54.074831 c 0,-1.137366 0.892395,-2.053106 2.000395,-2.053106 z"
             style="fill:#ffffff" />
        </g>
      </g>
    </g>
  </g>
  <g
     inkscape:label="Layer 1 copy copy copy"
     inkscape:groupmode="layer"
     id="g73499"
     style="display:inline"
     sodipodi:insensitive="true">
    <g
       id="g74518"
       transform="translate(0.9588419,3.3082967)"
       style="fill:#1a1a1a">
      <rect
         style="fill:#1a1a1a;fill-opacity:0.529221;stroke-width:0.264583"
         id="rect73485"
         width="31.129"
         height="6"
         x="11.312017"
         y="23.549694"
         rx="2.0227158"
         ry="1.9585261" />
      <rect
         style="display:inline;fill:#1a1a1a;fill-opacity:0.529221;stroke-width:0.264583"
         id="rect73487"
         width="65.129341"
         height="6"
         x="11.312017"
         y="31.920183"
         rx="2.0227158"
         ry="1.9585261" />
      <rect
         style="display:inline;fill:#1a1a1a;fill-opacity:0.529221;stroke-width:0.264583"
         id="rect73489"
         width="56.129002"
         height="6"
         x="11.312017"
         y="40.521198"
         rx="2.0227158"
         ry="1.9585261" />
      <rect
         style="display:inline;fill:#1a1a1a;fill-opacity:0.529221;stroke-width:0.264583"
         id="rect73491"
         width="45.129002"
         height="6"
         x="11.312017"
         y="48.41082"
         rx="2.0227158"
         ry="1.9585261" />
      <rect
         style="display:inline;fill:#1a1a1a;fill-opacity:0.529221;stroke-width:0.264583"
         id="rect73493"
         width="65.129341"
         height="6"
         x="11.312017"
         y="56.788422"
         rx="2.0227158"
         ry="1.9585261" />
      <g
         id="g74507"
         style="fill:#1a1a1a">
        <path
           id="path73385"
           style="display:inline;fill:#1a1a1a;fill-opacity:1;stroke-width:0.711413"
           d="m 32.894531,17.732422 c -11.855539,0 -21.40039,9.644657 -21.40039,21.623047 V 298.47266 c 0,11.97838 9.544851,21.62304 21.40039,21.62304 H 55.185547 V 301.19727 H 37.951172 c -4.187717,0 -7.558594,-3.46106 -7.558594,-7.75977 V 82.185547 c 0,-4.29871 3.370877,-7.759766 7.558594,-7.759766 H 400.78711 c 4.18772,0 7.55859,3.461056 7.55859,7.759766 v 53.419923 h 18.89649 V 39.355469 c 0,-11.97839 -9.54289,-21.623047 -21.39844,-21.623047 z M 45.511719,36.630859 A 11.338583,11.338583 0 0 1 56.849609,47.96875 11.338583,11.338583 0 0 1 45.511719,59.308594 11.338583,11.338583 0 0 1 34.171875,47.96875 11.338583,11.338583 0 0 1 45.511719,36.630859 Z m 34.015625,0 A 11.338583,11.338583 0 0 1 90.865234,47.96875 11.338583,11.338583 0 0 1 79.527344,59.308594 11.338583,11.338583 0 0 1 68.1875,47.96875 11.338583,11.338583 0 0 1 79.527344,36.630859 Z m 34.015626,0 A 11.338583,11.338583 0 0 1 124.88086,47.96875 11.338583,11.338583 0 0 1 113.54297,59.308594 11.338583,11.338583 0 0 1 102.20312,47.96875 11.338583,11.338583 0 0 1 113.54297,36.630859 Z m 37.88086,0 h 249.27734 c 4.23526,0 7.64453,3.370878 7.64453,7.558594 v 7.558594 c 0,4.187716 -3.40927,7.560547 -7.64453,7.560547 H 151.42383 c -4.23528,0 -7.64453,-3.372831 -7.64453,-7.560547 v -7.558594 c 0,-4.187716 3.40925,-7.558594 7.64453,-7.558594 z"
           transform="scale(0.26458333)" />
        <g
           aria-label="&lt;/&gt;"
           id="g73497"
           style="font-weight:bold;font-size:50.8px;line-height:1.25;-inkscape-font-specification:'sans-serif Bold';word-spacing:0px;fill:#1a1a1a;fill-opacity:0.7;stroke-width:0.264583"
           transform="translate(-6.1195307,-1.2116072)">
          <path
             id="path73495"
             d="m 88.115129,88.632524 16.967201,-6.9596 -16.967201,-7.874 v -5.9436 l 24.638001,12.2936 v 3.556 l -24.638001,10.8712 z m -2.438408,-25.2984 -13.5128,36.2712 h -6.858 l 13.5128,-36.2712 z m -22.961625,31.242 -24.638,-10.8712 v -3.556 l 24.638,-12.2936 v 5.9436 l -16.9672,7.874 16.9672,6.9596 z M 26.09753,37.02161 c -3.136778,-3e-6 -5.66167,2.551813 -5.66167,5.721097 v 68.558103 c 0,3.16928 2.524892,5.72109 5.66167,5.72109 h 98.67613 c 3.13678,0 5.66219,-2.55181 5.66219,-5.72109 V 42.742707 c 0,-3.169283 -2.52541,-5.721096 -5.66219,-5.721096 z m 3.338298,5.000209 a 3,3 0 0 1 2.999817,2.999817 3,3 0 0 1 -2.999817,3.000335 3,3 0 0 1 -3.000334,-3.000335 3,3 0 0 1 3.000334,-2.999817 z m 8.999966,0 a 3,3 0 0 1 2.999817,2.999817 3,3 0 0 1 -2.999817,3.000335 3,3 0 0 1 -2.999817,-3.000335 3,3 0 0 1 2.999817,-2.999817 z m 8.999969,0 a 3,3 0 0 1 2.999816,2.999817 3,3 0 0 1 -2.999816,3.000335 3,3 0 0 1 -2.999817,-3.000335 3,3 0 0 1 2.999817,-2.999817 z M 27.43595,52.021725 h 95.99981 c 1.108,0 1.99988,0.91574 1.99988,2.053106 v 55.893759 c 0,1.13737 -0.89188,2.0531 -1.99988,2.0531 H 27.43595 c -1.108,0 -2.000395,-0.91573 -2.000395,-2.0531 V 54.074831 c 0,-1.137366 0.892395,-2.053106 2.000395,-2.053106 z"
             style="fill:#1a1a1a" />
        </g>
      </g>
    </g>
  </g>
</svg>
